<?xml version="1.0" encoding="UTF-8"?>
<svg id="Layer_1" data-name="Layer 1" xmlns="http://www.w3.org/2000/svg" xmlns:xlink="http://www.w3.org/1999/xlink" viewBox="0 0 369.78 55.62">
  <defs>
    <style>
      .cls-1 {
        fill: none;
      }

      .cls-2 {
        fill: url(#linear-gradient);
      }

      .cls-3 {
        clip-path: url(#clippath);
      }

      .cls-4 {
        fill: #fff;
      }
    </style>
    <clipPath id="clippath">
      <path class="cls-1" d="m17.98,53H1.36v-16.62h16.62v16.62ZM34.81,2.94h16.62v16.62h-16.62V2.94Zm17.98,17.98V1.58h-19.35L0,35.02v19.35h19.34L52.79,20.92Z"/>
    </clipPath>
    <linearGradient id="linear-gradient" x1="4084.76" y1="1292.3" x2="4093.43" y2="1292.3" gradientTransform="translate(-24877.69 7898.52) scale(6.09 -6.09)" gradientUnits="userSpaceOnUse">
      <stop offset="0" stop-color="#1f2249"/>
      <stop offset=".22" stop-color="#262d56"/>
      <stop offset=".63" stop-color="#394c7a"/>
      <stop offset="1" stop-color="#4e6d9f"/>
    </linearGradient>
  </defs>
  <g>
    <polygon class="cls-4" points="69.23 54.21 69.23 1.42 82.05 1.42 82.05 43.1 102.48 43.1 102.48 54.21 69.23 54.21"/>
    <path class="cls-4" d="m146.81,42.98c-1.07,2.61-2.6,4.85-4.59,6.71-1.98,1.86-4.39,3.32-7.19,4.36-2.81,1.05-5.93,1.57-9.36,1.57s-6.6-.52-9.4-1.57c-2.78-1.04-5.14-2.5-7.08-4.36-1.93-1.86-3.42-4.1-4.47-6.71-1.04-2.61-1.56-5.5-1.56-8.69V1.41h12.67v31.84c0,1.45.18,2.81.55,4.1.38,1.3.94,2.45,1.72,3.47.77,1.02,1.79,1.83,3.06,2.43,1.27.6,2.8.89,4.59.89s3.32-.29,4.59-.89c1.27-.6,2.3-1.4,3.09-2.43.8-1.01,1.37-2.17,1.72-3.47.35-1.29.52-2.65.52-4.1V1.41h12.75v32.89c0,3.18-.54,6.08-1.6,8.69"/>
    <path class="cls-4" d="m193.52,53.27c-3.43,1.57-7.39,2.35-11.86,2.35-4.07,0-7.84-.67-11.29-2.01-3.46-1.34-6.45-3.24-8.99-5.7-2.53-2.46-4.52-5.41-5.96-8.84-1.44-3.42-2.16-7.2-2.16-11.33s.73-8.05,2.19-11.48c1.47-3.43,3.49-6.34,6.09-8.76,2.58-2.41,5.61-4.26,9.09-5.55,3.48-1.29,7.24-1.94,11.26-1.94,3.73,0,7.39.66,11,1.98,3.61,1.32,6.52,3.24,8.75,5.78l-8.64,8.64c-1.2-1.64-2.77-2.85-4.7-3.65-1.94-.8-3.93-1.2-5.96-1.2-2.24,0-4.29.41-6.15,1.23-1.86.82-3.47,1.95-4.81,3.39-1.34,1.45-2.38,3.15-3.13,5.11-.75,1.96-1.12,4.11-1.12,6.45s.37,4.57,1.12,6.56c.75,1.98,1.78,3.68,3.09,5.11,1.32,1.41,2.9,2.52,4.73,3.32,1.84.8,3.85,1.19,6.04,1.19,2.53,0,4.74-.49,6.63-1.49,1.89-.99,3.41-2.28,4.55-3.87l8.88,8.36c-2.34,2.68-5.23,4.8-8.65,6.37"/>
    <rect class="cls-4" x="204.63" y="1.42" width="12.82" height="52.79"/>
    <path class="cls-4" d="m261.37,27.67c0-2.98-.49-5.45-1.46-7.42s-2.26-3.53-3.87-4.7c-1.62-1.17-3.46-2-5.52-2.5-2.06-.49-4.19-.75-6.37-.75h-6.34v30.87h6.04c2.28,0,4.48-.26,6.6-.78,2.11-.52,3.97-1.38,5.59-2.57,1.61-1.2,2.9-2.78,3.87-4.77.97-1.99,1.46-4.46,1.46-7.39m13.27,0c0,4.62-.86,8.62-2.57,11.97-1.72,3.35-3.97,6.11-6.78,8.27-2.82,2.17-5.98,3.75-9.51,4.78-3.53,1.01-7.11,1.53-10.74,1.53h-19.68V1.42h19.09c3.74,0,7.41.43,11.03,1.31,3.63.87,6.87,2.31,9.7,4.32,2.83,2.02,5.11,4.72,6.86,8.1,1.74,3.38,2.61,7.55,2.61,12.52"/>
    <polygon class="cls-4" points="303.05 31.84 303.05 54.21 290.3 54.21 290.3 31.84 270.47 1.41 285.91 1.41 297.16 20.95 308.42 1.41 323.34 1.41 303.05 31.84"/>
    <path class="cls-4" d="m341.45,15.52l-6.72,18.12h13.28l-6.56-18.12Zm14.16,38.69l-4.1-10.37h-20.43l-3.87,10.37h-13.87L335.48,1.42h12.38l21.92,52.79h-14.16Z"/>
  </g>
  <g class="cls-3">
    <rect class="cls-2" y="1.58" width="52.79" height="52.79"/>
  </g>
</svg>